# xmcd
#
# Track frame offsets: 
#        150
#        11592
#        23576
#        33586
#        44274
#        56205
#        66553
#        77854
#        89982
#        97698
#        109380
#        122075
#        132790
#        141586
#        153517
#        164950
#        175485
#        188085
#        199874
#        210985
#
# Disc length: 2984 seconds
#
# Revision: 1
# Processed by: cddbd v1.5.2PL0 Copyright (c) Steve Scherf et al.
# Submitted via: ExactAudioCopy v1.3
#
DISCID=2c0ba614
DTITLE=Bill Monroe - 5 Classic Albiums Plus_CD03
DYEAR=2015
DGENRE=Bluegrass
TTITLE0=Little Maggie
TTITLE1=Bugle Call Rag
TTITLE2=Toy Heart
TTITLE3=I'm Going Back To Old Kentucky
TTITLE4=Live And Let Live
TTITLE5=Nine Pound Hammer
TTITLE6=Cotton Fields
TTITLE7=John Hardy
TTITLE8=Shady Grove
TTITLE9=Danny Boy
TTITLE10=Journey's End
TTITLE11=Old Joe Clark
TTITLE12=Let The Light Shine Down On Me
TTITLE13=Wait A Little Longer, Please Jesus
TTITLE14=Put My Little Shoes Away
TTITLE15=Wheel Hoss
TTITLE16=On And On
TTITLE17=I Believe In You, Darling
TTITLE18=Sitting Alone In The Moonlight
TTITLE19=You'll Find Her Name Written There
EXTD=
EXTT0=
EXTT1=
EXTT2=
EXTT3=
EXTT4=
EXTT5=
EXTT6=
EXTT7=
EXTT8=
EXTT9=
EXTT10=
EXTT11=
EXTT12=
EXTT13=
EXTT14=
EXTT15=
EXTT16=
EXTT17=
EXTT18=
EXTT19=
PLAYORDER=
